<svg xmlns="http://www.w3.org/2000/svg" xmlns:xlink="http://www.w3.org/1999/xlink" width="71.28" height="72.82" viewBox="0 0 71.28 72.82"><defs><path id="i49la" d="M564.08 1698.77a32.87 32.87 0 0 1-39.55 5.57 1.4 1.4 0 0 0-1.4 0l-6.35 4.12 1.22-8.17a1.4 1.4 0 0 0-.4-1.2 32.86 32.86 0 1 1 46.48-.32zm-6.79-54.62a35.68 35.68 0 0 0-16.6-4.15 35.68 35.68 0 0 0-25.57 60.58l-1.5 10.6a1.4 1.4 0 0 0 2.17 1.4l8.1-5.37a35.68 35.68 0 0 0 33.4-63.06z"/><path id="i49lb" d="M535.41 1693.29v-2.25h1.19c.77 0 1.4-.63 1.4-1.41v-17.14c0-.78-.63-1.4-1.4-1.4h-1.19v-2.26h9.31v20.8c0 .78.63 1.4 1.4 1.4h1.18l.01 2.26zm13.3-5.08h-1.16v-20.78c0-.78-.63-1.41-1.4-1.41H534c-.78 0-1.41.63-1.41 1.4v5.07c0 .78.63 1.4 1.4 1.4h1.19v14.32H534c-.78 0-1.41.63-1.41 1.41v5.06c0 .78.63 1.41 1.4 1.41h14.72c.77 0 1.4-.63 1.4-1.4v-5.07c0-.78-.63-1.4-1.4-1.4z"/><path id="i49lc" d="M540.78 1661.31a3.09 3.09 0 0 1-3.08-3.09c0-1.7 1.37-3.1 3.07-3.1h.01v.01a3.09 3.09 0 0 1 0 6.18zm0-9a5.9 5.9 0 1 0 0 11.79 5.9 5.9 0 0 0 0-11.79z"/></defs><g><g transform="translate(-505 -1640)"><g><use fill="#ea6f48" xlink:href="#i49la"/></g><g><use fill="#ea6f48" xlink:href="#i49lb"/></g><g><use fill="#ea6f48" xlink:href="#i49lc"/></g></g></g></svg>