<svg xmlns="http://www.w3.org/2000/svg" xmlns:xlink="http://www.w3.org/1999/xlink" width="90" height="50.23" viewBox="0 0 90 50.23"><defs><path id="s9eta" d="M1035.63 1647.66h-7.17a1.5 1.5 0 0 0 0 3h7.14v5.07h-18.34a1.5 1.5 0 0 0 0 3h18.31v5.13h-10.32a1.5 1.5 0 0 0 0 3h10.29v13.79h-9.28a8.08 8.08 0 0 0-15.89 0l-19.71-.09.1-37.5 44.87.1zm-17.31 39.57a5.1 5.1 0 1 1 0-10.2 5.1 5.1 0 0 1 0 10.2zm-33.55-6.6a8.09 8.09 0 0 0-15.89 0H966v-13.78h21.66v13.79zm-7.94 6.6a5.1 5.1 0 1 1 0-10.2 5.1 5.1 0 0 1 0 10.2zm-.4-31.7h11.22v8.31h-16.02zm75.07-7.92h-12.88v-4.5a3.1 3.1 0 0 0-3.11-3.11h-44.76a3.1 3.1 0 0 0-3.1 3.1v9.37h-12.1a1.5 1.5 0 0 0-1.3.74l-6.09 10.64h-3.66c-.83 0-1.5.67-1.5 1.5v16.8c0 .83.67 1.5 1.5 1.5h4.38a8.08 8.08 0 0 0 15.88 0h4.38c.23 0 .45-.06.65-.17.3.11.62.17.94.17h19.62a8.08 8.08 0 0 0 15.89 0h9.27a3.1 3.1 0 0 0 3.1-3.1v-13.7h9.7a1.5 1.5 0 0 0 0-3h-9.7v-5.13h1.7a1.5 1.5 0 0 0 0-3h-1.7v-5.12h12.89a1.5 1.5 0 0 0 0-3z"/></defs><g><g transform="translate(-963 -1640)"><use fill="#ea6f48" xlink:href="#s9eta"/></g></g></svg>