<svg xmlns="http://www.w3.org/2000/svg" xmlns:xlink="http://www.w3.org/1999/xlink" width="72" height="72" viewBox="0 0 72 72"><defs><path id="2qxaa" d="M111.3 3325.84a6.22 6.22 0 1 1 .03-12.43 6.22 6.22 0 0 1-.02 12.43zm4.13-13.87a32.09 32.09 0 0 0-14.53-34.75 1.24 1.24 0 1 0-1.3 2.12 29.63 29.63 0 0 1 13.48 31.77 8.68 8.68 0 1 0 2.35.86z"/><path id="2qxab" d="M50.48 3319.62a6.22 6.22 0 1 1 12.44.02 6.22 6.22 0 0 1-12.44-.02zm44.9 12.64a29.85 29.85 0 0 1-32.5-6.55 8.7 8.7 0 1 0-14.88-6.1 8.7 8.7 0 0 0 12.89 7.61 32.33 32.33 0 0 0 35.44 7.33 1.24 1.24 0 0 0-.95-2.3z"/><path id="2qxac" d="M84 3267.48a6.22 6.22 0 1 1-.01 12.44 6.22 6.22 0 0 1 .01-12.44zm-31.04 36.27h.1c.64 0 1.18-.5 1.23-1.15a29.64 29.64 0 0 1 21.38-26.46 8.7 8.7 0 0 0 17.02-2.45 8.7 8.7 0 0 0-17.38-.03 32.12 32.12 0 0 0-23.5 28.76c-.05.69.47 1.28 1.15 1.33z"/></defs><g><g transform="translate(-48 -3265)"><g><use fill="#ea6f48" xlink:href="#2qxaa"/></g><g><use fill="#ea6f48" xlink:href="#2qxab"/></g><g><use fill="#ea6f48" xlink:href="#2qxac"/></g></g></g></svg>