<svg xmlns="http://www.w3.org/2000/svg" xmlns:xlink="http://www.w3.org/1999/xlink" width="72.94" height="71.07" viewBox="0 0 72.94 71.07"><defs><path id="t1tna" d="M102.43 1673.54c0-.74.6-1.34 1.32-1.34a1.33 1.33 0 1 1 0 2.67c-.73 0-1.32-.6-1.32-1.33z"/><path id="t1tnb" d="M54.65 1673.54c0-.74.6-1.34 1.32-1.34a1.33 1.33 0 1 1 0 2.67c-.73 0-1.32-.6-1.32-1.33z"/><path id="t1tnc" d="M58.63 1677.54c0-.74.6-1.34 1.32-1.34a1.33 1.33 0 1 1 0 2.67c-.73 0-1.32-.6-1.32-1.33z"/><path id="t1tnd" d="M66.59 1677.54c0-.74.6-1.34 1.32-1.34a1.33 1.33 0 1 1 0 2.67c-.73 0-1.32-.6-1.32-1.33z"/><path id="t1tne" d="M62.61 1681.54c0-.74.6-1.34 1.32-1.34a1.33 1.33 0 1 1 0 2.67c-.73 0-1.32-.6-1.32-1.33z"/><path id="t1tnf" d="M70.57 1681.54c0-.74.6-1.34 1.32-1.34a1.33 1.33 0 1 1 0 2.67c-.73 0-1.32-.6-1.32-1.33z"/><path id="t1tng" d="M74.56 1685.54c0-.74.6-1.34 1.32-1.34a1.33 1.33 0 1 1 0 2.67c-.73 0-1.32-.6-1.32-1.33z"/><path id="t1tnh" d="M82.52 1685.54c0-.74.6-1.34 1.32-1.34a1.33 1.33 0 1 1 0 2.67c-.73 0-1.32-.6-1.32-1.33z"/><path id="t1tni" d="M86.5 1681.54c0-.74.6-1.34 1.32-1.34a1.33 1.33 0 1 1 0 2.67c-.73 0-1.32-.6-1.32-1.33z"/><path id="t1tnj" d="M78.54 1689.54c0-.74.6-1.34 1.32-1.34a1.33 1.33 0 1 1 0 2.67c-.73 0-1.32-.6-1.32-1.33z"/><path id="t1tnk" d="M90.48 1677.54c0-.74.6-1.34 1.32-1.34a1.33 1.33 0 1 1 0 2.67c-.73 0-1.32-.6-1.32-1.33z"/><path id="t1tnl" d="M98.45 1677.54c0-.74.6-1.34 1.32-1.34a1.33 1.33 0 1 1 0 2.67c-.73 0-1.32-.6-1.32-1.33z"/><path id="t1tnm" d="M94.46 1681.54c0-.74.6-1.34 1.32-1.34a1.33 1.33 0 1 1 0 2.67c-.73 0-1.32-.6-1.32-1.33z"/><path id="t1tnn" d="M111.57 1690.15L80.47 1708l-31.1-17.86 10.12-5.79 20.98 12.05 20.97-12.05zm-52.8-20.04c.22.44.66.76 1.19.76.36 0 .68-.15.92-.38l3 1.72c-.7.04-1.27.6-1.27 1.32a1.33 1.33 0 0 0 2.65 0c0-.23-.07-.43-.17-.62l13.71 7.87a1.3 1.3 0 0 0-.26.75 1.33 1.33 0 0 0 2.65 0l-.03-.19 13.34-7.65a1.31 1.31 0 1 0 2.09-1.2l2.92-1.68c.1.02.18.06.27.06.6 0 1.07-.4 1.25-.93l.42-.24 10.14 5.78-2.64 1.5a1.32 1.32 0 0 0-2.53.55c0 .29.11.54.26.76l-5.23 3-8.48 4.87c.1-.19.18-.4.18-.63a1.33 1.33 0 1 0-1.38 1.32l-3.01 1.73a1.32 1.32 0 0 0-2.25.95c0 .1.04.2.06.3l-6.1 3.5-7.32-4.2a1.31 1.31 0 0 0-1.24-.93c-.1 0-.19.03-.28.05l-2.92-1.67c.32-.25.54-.61.54-1.05a1.32 1.32 0 1 0-2.62-.15l-13.35-7.65c0-.07.04-.13.04-.2 0-.73-.6-1.33-1.33-1.33-.32 0-.6.13-.82.31l-1.8-1.03zm21.7-27.04l31.12 17.74-10.14 5.81-20.97 12.03-31.12-17.84zm24 39.56l12.47-7.16-12.82-7.31 12.82-7.36-36.47-20.8L44 1660.8l12.82 7.36-12.82 7.31 12.82 7.36-12.82 7.3 36.47 20.94 36.47-20.93-12.82-7.31.1-.06c.09-.03.17-.09.25-.14z"/></defs><g><g transform="translate(-44 -1640)"><g><use fill="#ea6f48" xlink:href="#t1tna"/></g><g><use fill="#ea6f48" xlink:href="#t1tnb"/></g><g><use fill="#ea6f48" xlink:href="#t1tnc"/></g><g><use fill="#ea6f48" xlink:href="#t1tnd"/></g><g><use fill="#ea6f48" xlink:href="#t1tne"/></g><g><use fill="#ea6f48" xlink:href="#t1tnf"/></g><g><use fill="#ea6f48" xlink:href="#t1tng"/></g><g><use fill="#ea6f48" xlink:href="#t1tnh"/></g><g><use fill="#ea6f48" xlink:href="#t1tni"/></g><g><use fill="#ea6f48" xlink:href="#t1tnj"/></g><g><use fill="#ea6f48" xlink:href="#t1tnk"/></g><g><use fill="#ea6f48" xlink:href="#t1tnl"/></g><g><use fill="#ea6f48" xlink:href="#t1tnm"/></g><g><use fill="#ea6f48" xlink:href="#t1tnn"/></g></g></g></svg>