<svg xmlns="http://www.w3.org/2000/svg" xmlns:xlink="http://www.w3.org/1999/xlink" width="72" height="72" viewBox="0 0 72 72"><defs><path id="ebj8a" d="M88.37 3474.22a45.78 45.78 0 0 0 10.27-14.52 43.3 43.3 0 0 1 9.33 4.7 33.45 33.45 0 0 1-19.6 9.82zm-28.34-9.82a43.26 43.26 0 0 1 9.33-4.7 45.8 45.8 0 0 0 10.27 14.52 33.45 33.45 0 0 1-19.6-9.82zm42.56-22.16h14.9a33.38 33.38 0 0 1-7.83 20.3 45.77 45.77 0 0 0-10.07-5.13c1.83-4.79 2.86-9.9 3-15.17zm-17.35 12.46v-12.46h14.86a43.34 43.34 0 0 1-2.87 14.38 45.72 45.72 0 0 0-11.99-1.92zm0 19.02v-16.53c3.77.1 7.47.69 11.03 1.73a43.4 43.4 0 0 1-11.03 14.8zm-2.48-16.53v16.53a43.41 43.41 0 0 1-11.03-14.8 43.28 43.28 0 0 1 11.03-1.73zm-14.86-14.95h14.86v12.47c-4.1.11-8.13.75-12 1.92a43.41 43.41 0 0 1-2.86-14.39zm1.94-21.01a43.14 43.14 0 0 1-9.06-4.37 33.42 33.42 0 0 1 18.85-9.08c-4.1 3.9-7.4 8.45-9.8 13.45zm28.32 0c-2.38-5-5.7-9.55-9.79-13.45a33.42 33.42 0 0 1 18.85 9.08 43.18 43.18 0 0 1-9.06 4.37zm-12.92 2.34v-15.29c4.45 3.88 8 8.54 10.52 13.7a43.4 43.4 0 0 1-10.52 1.6zm0 2.49c3.95-.1 7.82-.7 11.55-1.79a43.36 43.36 0 0 1 3.31 15.49H85.24zm-2.48 0v13.7H67.9a43.36 43.36 0 0 1 3.3-15.49 45.87 45.87 0 0 0 11.56 1.79zm0-2.49a43.4 43.4 0 0 1-10.52-1.59 43.43 43.43 0 0 1 10.52-13.7zm34.74 16.2h-14.91a45.86 45.86 0 0 0-3.42-16.26 45.69 45.69 0 0 0 9.81-4.83c5.05 5.65 8.22 13 8.52 21.09zm-58.47-21.09a45.69 45.69 0 0 0 9.8 4.83 45.86 45.86 0 0 0-3.4 16.26H50.5a33.39 33.39 0 0 1 8.52-21.09zm-8.52 23.56h14.9a45.92 45.92 0 0 0 3 15.17c-3.53 1.28-6.9 3-10.07 5.14a33.39 33.39 0 0 1-7.83-20.3zm60.41 22.62a35.86 35.86 0 0 0-.7-48.48v-.02a35.9 35.9 0 0 0-24.97-11.33l-.7-.02-.55-.01-.54.01-.7.02a35.9 35.9 0 0 0-24.97 11.33l-.02.02A35.85 35.85 0 0 0 48 3441c0 9.15 3.44 17.5 9.08 23.86l.01.04.08.07a35.92 35.92 0 0 0 25.58 12l.7.02.55.01.54-.01.7-.02a35.92 35.92 0 0 0 25.6-12.03l.07-.04.01-.04z"/></defs><g><g transform="translate(-48 -3405)"><use fill="#ea6f48" xlink:href="#ebj8a"/></g></g></svg>