<svg xmlns="http://www.w3.org/2000/svg" xmlns:xlink="http://www.w3.org/1999/xlink" width="21.95" height="27.34" viewBox="0 0 21.95 27.34"><defs><path id="gf2va" d="M1267.18 4165.72c-.2 0-.35.06-.44.18-.09.11-.13.31-.13.59v.66h1.13v-.66c0-.28-.04-.48-.13-.59-.09-.12-.23-.18-.43-.18z"/><path id="gf2vb" d="M1262.77 4165.7a.6.6 0 0 0-.28.06.93.93 0 0 0-.26.2v4.09c.1.1.2.19.3.23.1.05.2.07.31.07.16 0 .27-.04.35-.14.07-.09.11-.24.11-.45v-3.39c0-.22-.04-.39-.14-.5a.49.49 0 0 0-.4-.17z"/><path id="gf2vc" d="M1269.06 4168.18h-2.45v1.24c0 .34.04.58.12.72.09.13.23.2.44.2.2 0 .36-.06.44-.17.08-.12.13-.37.13-.75v-.3h1.32v.33c0 .68-.16 1.18-.49 1.53-.31.33-.8.5-1.43.5-.58 0-1.03-.18-1.36-.54-.33-.36-.5-.85-.5-1.49v-2.94c0-.57.19-1.04.55-1.4a1.9 1.9 0 0 1 1.4-.53c.59 0 1.04.17 1.35.5.32.33.48.8.48 1.43zm-4.44 1.77c0 .46-.1.82-.3 1.06-.2.25-.5.37-.87.37a1.5 1.5 0 0 1-1.22-.58v.5h-1.3v-8.89h1.3v2.86c.17-.2.36-.35.55-.45.2-.1.4-.16.59-.16.4 0 .72.14.93.42.21.28.32.69.32 1.23v3.64zm-4.65 1.35h-1.27v-.72c-.24.27-.49.47-.74.6-.26.15-.5.22-.75.22-.3 0-.51-.1-.67-.3-.15-.2-.22-.48-.22-.88v-5.48h1.28v5.03c0 .16.02.27.08.34.05.07.14.1.26.1.1 0 .21-.04.36-.13.14-.1.27-.21.4-.36v-4.98h1.27zm-5.7-7.6v7.6h-1.45v-7.6h-1.5v-1.29h4.43v1.3zm15.6-3.08c-1.04-1.06-9.9-1.07-9.9-1.07s-8.86.01-9.91 1.07c-1.06 1.06-1.06 6.3-1.06 6.32 0 .04 0 5.26 1.06 6.32 1.05 1.06 9.9 1.08 9.9 1.08s8.87-.02 9.92-1.08c1.06-1.06 1.07-6.32 1.07-6.32 0-.03-.02-5.26-1.07-6.32z"/><path id="gf2vd" d="M1267.17 4156.8h-1.44v-.8c-.26.29-.54.52-.83.67-.29.15-.56.23-.83.23-.34 0-.59-.1-.76-.32-.17-.22-.25-.54-.25-.97v-6.04h1.44v5.54c0 .17.03.3.1.37.05.08.15.12.29.12.1 0 .24-.06.4-.16.16-.1.3-.23.44-.38v-5.49h1.44v7.23z"/><path id="gf2ve" d="M1260.42 4155.11c0 .2-.05.35-.17.46a.65.65 0 0 1-.46.17c-.2 0-.34-.06-.44-.17a.65.65 0 0 1-.16-.46v-3.94a.5.5 0 0 1 .17-.38c.1-.1.25-.15.43-.15a.7.7 0 0 1 .46.15c.12.1.17.22.17.38zm.9-5.2a2.08 2.08 0 0 0-1.46-.52c-.66 0-1.18.17-1.57.5-.39.33-.58.77-.58 1.34v3.74c0 .62.19 1.1.57 1.47.37.36.88.54 1.51.54.66 0 1.17-.17 1.54-.53.38-.35.56-.83.56-1.45v-3.74c0-.55-.19-1-.57-1.35z"/><path id="gf2vf" d="M1253.78 4147h-1.63l1.93 5.91v3.88h1.62v-4.06l1.9-5.73h-1.66l-1 3.92h-.1z"/></defs><g><g transform="translate(-1249 -4147)"><g><use fill="#474747" xlink:href="#gf2va"/></g><g><use fill="#474747" xlink:href="#gf2vb"/></g><g><use fill="#474747" xlink:href="#gf2vc"/></g><g><use fill="#474747" xlink:href="#gf2vd"/></g><g><use fill="#474747" xlink:href="#gf2ve"/></g><g><use fill="#474747" xlink:href="#gf2vf"/></g></g></g></svg>