<svg xmlns="http://www.w3.org/2000/svg" xmlns:xlink="http://www.w3.org/1999/xlink" width="12.81" height="17.46" viewBox="0 0 12.81 17.46"><defs><path id="em31a" d="M51.4 4246a6.41 6.41 0 0 0-4 11.39c.84.7 1.42 1.68 1.58 2.81.01.08.07.15.15.18h.02a8.33 8.33 0 0 0 4.54 0 .22.22 0 0 0 .14-.16v-.03a4.48 4.48 0 0 1 1.77-2.95 6.44 6.44 0 0 0 2.2-4.85c0-3.53-2.88-6.4-6.4-6.39m2.68 10a6.4 6.4 0 0 0-1.86 2.75 6 6 0 0 1-1.62 0 6.47 6.47 0 0 0-2.04-2.89 4.48 4.48 0 1 1 5.52.13"/><path id="em31b" d="M53.59 4251.67c.42 0 .76.33.77.75v.06a2.96 2.96 0 0 1-5.91-.03.77.77 0 0 1 1.53-.02v.02a1.42 1.42 0 0 0 2.84.02V4252.38c.03-.4.36-.71.77-.71m.12 9.42c.04 0 .07.03.07.07v.01a2.38 2.38 0 0 1-4.75.01v-.02c0-.04.03-.07.07-.07h.02a8.76 8.76 0 0 0 4.57 0h.02"/></defs><g><g transform="translate(-45 -4246)"><g><use fill="#ea6f48" xlink:href="#em31a"/></g><g><use fill="#ea6f48" xlink:href="#em31b"/></g></g></g></svg>